<svg width="12" height="15" viewBox="0 0 12 15" fill="none" xmlns="http://www.w3.org/2000/svg">
<path d="M8 10.425V12.05C8 12.6557 8 12.9586 7.89851 13.1975C7.76318 13.516 7.50362 13.7691 7.17691 13.901C6.93188 14 6.62126 14 6 14C5.37874 14 5.06812 14 4.82309 13.901C4.49638 13.7691 4.23682 13.516 4.10149 13.1975C4 12.9586 4 12.6557 4 12.05V10.425M8 10.425C9.76591 9.67273 11 7.87406 11 5.875C11 3.18261 8.76142 1 6 1C3.23858 1 1 3.18261 1 5.875C1 7.87406 2.2341 9.67273 4 10.425M8 10.425L6 10.4545L4 10.425" stroke="#C0C0C0" stroke-width="0.5" stroke-linecap="round" stroke-linejoin="round"/>
</svg>
