<svg width="18" height="18" viewBox="0 0 18 18" fill="none" xmlns="http://www.w3.org/2000/svg">
<path d="M15.3396 3.66318L15.3383 3.66182L14.3594 2.69761L14.3596 2.69745L14.3518 2.69036C13.9588 2.33467 13.451 2.26427 12.9776 2.52954L12.9775 2.52937L12.9689 2.5346L11.6607 3.33795C11.5041 3.26696 11.3372 3.19971 11.158 3.13613L10.8064 1.64636C10.6899 1.09065 10.2456 0.75 9.68894 0.75H8.31106C8.03546 0.75 7.78267 0.831071 7.58152 0.992319C7.38071 1.15329 7.24625 1.38223 7.18635 1.6526L6.8416 3.12195C6.66409 3.18535 6.48846 3.25386 6.32289 3.3298L5.0232 2.53441L5.0233 2.53425L5.0149 2.52954C4.78693 2.40182 4.5424 2.34552 4.29885 2.37412C4.05519 2.40272 3.83027 2.51422 3.63831 2.69255L3.63824 2.69247L3.63303 2.69761L2.6542 3.66182L2.6542 3.66182L2.65283 3.66319C2.45686 3.85925 2.3415 4.09731 2.31897 4.3528C2.29664 4.60601 2.36691 4.85886 2.51166 5.08641L3.29404 6.38869C3.23116 6.53293 3.16304 6.69693 3.1018 6.87634L1.64354 7.22732C1.09359 7.3515 0.75 7.78412 0.75 8.34463V9.70057C0.75 10.2612 1.09372 10.6939 1.64385 10.818L3.11895 11.1697C3.1753 11.3297 3.23995 11.4906 3.30833 11.6478L2.52882 12.9177C2.21739 13.3847 2.2755 13.9668 2.66789 14.3594L3.63165 15.3236C4.02683 15.719 4.59275 15.7639 5.05525 15.4719L6.33371 14.6838C6.49498 14.7548 6.66507 14.822 6.84155 14.8854L7.18616 16.3541C7.18626 16.3545 7.18636 16.355 7.18646 16.3554C7.24663 16.6228 7.38162 16.8496 7.58226 17.0092C7.78309 17.169 8.03549 17.25 8.31106 17.25H9.68894C10.2454 17.25 10.6897 16.9095 10.8063 16.3541L11.1581 14.8844C11.3299 14.8214 11.4986 14.7544 11.6591 14.6836L12.945 15.4721C13.4078 15.7641 13.966 15.7186 14.3608 15.3236L15.3246 14.3594C15.717 13.9668 15.7751 13.3847 15.4636 12.9177L14.6845 11.6484C14.7534 11.4931 14.822 11.3315 14.8803 11.1698L16.3562 10.818C16.9063 10.6939 17.25 10.2612 17.25 9.70057V8.34463C17.25 7.78412 16.9064 7.35149 16.3565 7.22732L14.8949 6.87554C14.8304 6.69689 14.7617 6.53331 14.6985 6.38864L15.4808 5.08643C15.6256 4.85887 15.6958 4.60601 15.6735 4.3528C15.651 4.09731 15.5356 3.85925 15.3396 3.66319L15.3396 3.66318ZM9.00376 11.3865C7.68877 11.3865 6.61094 10.3084 6.61094 8.99247C6.61094 7.69256 7.68784 6.61347 9.00376 6.61347C10.3108 6.61347 11.3815 7.69117 11.3815 8.99247C11.3815 10.3098 10.3098 11.3865 9.00376 11.3865Z" stroke="#C0C0C0" stroke-width="0.5"/>
</svg>
