<svg width="49" height="51" viewBox="0 0 49 51" fill="none" xmlns="http://www.w3.org/2000/svg">
<g opacity="0.9">
<path d="M24.5 42.4667L49 27.7667V35.9333L24.5 50.6333V42.4667Z" fill="#EA9C5C" fill-opacity="0.9"/>
<path d="M24.5 8.16667V0L49 13.8833L42.4667 17.9667L24.5 8.16667Z" fill="#EFB585" fill-opacity="0.8"/>
<path d="M24.5 28.5833V36.75L0 22.05L7 18L24.5 28.5833Z" fill="#EFB585" fill-opacity="0.8"/>
<path d="M0 13.8833L24.5 0V8.16667L0 22.05V13.8833Z" fill="#EA9C5C" fill-opacity="0.9"/>
<path d="M24.5 42.4667V50.6334L0 35.9334L6.53333 31.85L24.5 42.4667Z" fill="#EFB585" fill-opacity="0.8"/>
<path d="M0 27.7667L24.5 13.8834V22.05L0 35.9334V27.7667Z" fill="#EA9C5C" fill-opacity="0.9"/>
<path d="M24.5 22.05V13.8834L49 27.7667L42.4667 31.85L24.5 22.05Z" fill="#EFB585" fill-opacity="0.8"/>
<path d="M24.5 28.5834L49 13.8834V22.05L24.5 36.75V28.5834Z" fill="#EA9C5C" fill-opacity="0.9"/>
</g>
</svg>
