<svg width="18" height="18" viewBox="0 0 18 18" fill="none" xmlns="http://www.w3.org/2000/svg">
<path d="M9.73044 13.4444H15.4696M9.73044 13.4444L8.2 17M9.73044 13.4444L12.0226 8.11913C12.2073 7.69002 12.2997 7.47546 12.4261 7.40766C12.5359 7.3487 12.6641 7.3487 12.7739 7.40766C12.9003 7.47546 12.9927 7.69002 13.1774 8.11913L15.4696 13.4444M15.4696 13.4444L17 17M1 2.77778H5.8M5.8 2.77778H8.6M5.8 2.77778V1M8.6 2.77778H10.6M8.6 2.77778C8.20309 5.40648 7.28207 7.78772 5.93244 9.78616M7.4 10.7778C6.90998 10.5332 6.41012 10.193 5.93244 9.78616M5.93244 9.78616C4.85042 8.86468 3.88221 7.60146 3.4 6.33333M5.93244 9.78616C4.64869 11.6871 2.97715 13.2416 1 14.3333" stroke="#50A3F3" stroke-width="0.5" stroke-linecap="round" stroke-linejoin="round"/>
</svg>
