<svg width="16" height="16" viewBox="0 0 16 16" fill="none" xmlns="http://www.w3.org/2000/svg">
<g clip-path="url(#clip0_30_10)">
<path d="M10.4 5.33333C10.5477 5.33333 10.6667 5.45227 10.6667 5.6V7.2C10.6667 7.34773 10.5477 7.46667 10.4 7.46667C10.2523 7.46667 10.1333 7.34773 10.1333 7.2V5.6C10.1333 5.45227 10.2523 5.33333 10.4 5.33333ZM5.6 5.33333C5.74773 5.33333 5.86667 5.45227 5.86667 5.6V7.2C5.86667 7.34773 5.74773 7.46667 5.6 7.46667C5.45227 7.46667 5.33333 7.34773 5.33333 7.2V5.6C5.33333 5.45227 5.45227 5.33333 5.6 5.33333ZM5.06667 10.6667C4.79627 10.6667 4.7184 10.9941 4.89867 11.1403C5.7616 11.8629 6.87467 12.2667 8 12.2667C9.12533 12.2667 10.2416 11.8624 11.104 11.1403C11.3621 10.9248 11.024 10.5109 10.7627 10.7312C9.99787 11.3712 8.99893 11.7339 8.00213 11.7339C7.0048 11.7339 6.00533 11.3712 5.2416 10.7312C5.1936 10.6907 5.1296 10.6667 5.06667 10.6667ZM8 0C3.58507 0 0 3.58507 0 8C0 12.4149 3.58507 16 8 16C12.4149 16 16 12.4149 16 8C16 3.58507 12.4149 0 8 0ZM8 0.533333C12.1269 0.533333 15.4667 3.87307 15.4667 8C15.4667 12.1269 12.1269 15.4667 8 15.4667C3.87307 15.4667 0.533333 12.1269 0.533333 8C0.533333 3.87307 3.87307 0.533333 8 0.533333Z" fill="#50A3F3"/>
</g>
<defs>
<clipPath id="clip0_30_10">
<rect width="16" height="16" fill="white"/>
</clipPath>
</defs>
</svg>
